<svg width="13" height="12" viewBox="0 0 13 12" fill="none" xmlns="http://www.w3.org/2000/svg">
<g id="shopping-cart" clip-path="url(#clip0_1_435)">
<path id="Vector" d="M5 11C5.27614 11 5.5 10.7761 5.5 10.5C5.5 10.2239 5.27614 10 5 10C4.72386 10 4.5 10.2239 4.5 10.5C4.5 10.7761 4.72386 11 5 11Z" fill="#545F71" stroke="#545F71" stroke-width="2" stroke-linecap="round" stroke-linejoin="round"/>
<path id="Vector_2" d="M10.5 11C10.7761 11 11 10.7761 11 10.5C11 10.2239 10.7761 10 10.5 10C10.2239 10 10 10.2239 10 10.5C10 10.7761 10.2239 11 10.5 11Z" fill="#545F71" stroke="#545F71" stroke-width="2" stroke-linecap="round" stroke-linejoin="round"/>
<path id="Vector (Stroke)" fill-rule="evenodd" clip-rule="evenodd" d="M0.571411 0.499983C0.571411 0.263289 0.763289 0.0714111 0.999983 0.0714111H2.99998C3.20425 0.0714111 3.38013 0.215576 3.42022 0.415872L3.85165 2.57141H12C12.1277 2.57141 12.2488 2.62838 12.3302 2.72679C12.4116 2.8252 12.4449 2.9548 12.421 3.08027L11.6204 7.27848C11.555 7.60733 11.3761 7.90273 11.115 8.11297C10.8549 8.32228 10.5299 8.43391 10.1962 8.42855H5.34374C5.01008 8.43391 4.68502 8.32228 4.42501 8.11297C4.16394 7.90281 3.98507 7.60754 3.91969 7.27883L3.08403 3.10364C3.08091 3.09106 3.07834 3.07827 3.07635 3.06528L2.64869 0.928554H0.999983C0.763289 0.928554 0.571411 0.736676 0.571411 0.499983Z" fill="#545F71"/>
</g>
<defs>
<clipPath id="clip0_1_435">
<rect width="12" height="12" fill="white" transform="translate(0.5)"/>
</clipPath>
</defs>
</svg>
