<svg width="17" height="16" viewBox="0 0 17 16" fill="none" xmlns="http://www.w3.org/2000/svg">
<g clip-path="url(#clip0_1_322)">
<path d="M6.50004 14.6666C6.86823 14.6666 7.16671 14.3682 7.16671 14C7.16671 13.6318 6.86823 13.3333 6.50004 13.3333C6.13185 13.3333 5.83337 13.6318 5.83337 14C5.83337 14.3682 6.13185 14.6666 6.50004 14.6666Z" stroke="#F4F4F4" stroke-width="1.5" stroke-linecap="round" stroke-linejoin="round"/>
<path d="M13.8333 14.6666C14.2015 14.6666 14.5 14.3682 14.5 14C14.5 13.6318 14.2015 13.3333 13.8333 13.3333C13.4651 13.3333 13.1666 13.6318 13.1666 14C13.1666 14.3682 13.4651 14.6666 13.8333 14.6666Z" stroke="#F4F4F4" stroke-width="1.5" stroke-linecap="round" stroke-linejoin="round"/>
<path d="M1.16663 0.666687H3.83329L5.61996 9.59335C5.68092 9.90028 5.8479 10.176 6.09166 10.3722C6.33541 10.5684 6.64042 10.6727 6.95329 10.6667H13.4333C13.7462 10.6727 14.0512 10.5684 14.2949 10.3722C14.5387 10.176 14.7057 9.90028 14.7666 9.59335L15.8333 4.00002H4.49996" stroke="#F4F4F4" stroke-width="1.5" stroke-linecap="round" stroke-linejoin="round"/>
</g>
<defs>
<clipPath id="clip0_1_322">
<rect width="16" height="16" fill="white" transform="translate(0.5)"/>
</clipPath>
</defs>
</svg>
