<svg width="22" height="20" viewBox="0 0 22 20" fill="none" xmlns="http://www.w3.org/2000/svg">
<path opacity="0.5" d="M9.38177 2.72727H21.2M9.38177 2.72727C9.38177 3.20948 9.19021 3.67194 8.84924 4.01292C8.50826 4.35389 8.0458 4.54545 7.56359 4.54545C7.08138 4.54545 6.61891 4.35389 6.27794 4.01292C5.93696 3.67194 5.74541 3.20948 5.74541 2.72727M9.38177 2.72727C9.38177 2.24506 9.19021 1.7826 8.84924 1.44162C8.50826 1.10065 8.0458 0.909088 7.56359 0.909088C7.08138 0.909088 6.61891 1.10065 6.27794 1.44162C5.93696 1.7826 5.74541 2.24506 5.74541 2.72727M5.74541 2.72727H1.19995M9.38177 17.2727H21.2M9.38177 17.2727C9.38177 17.7549 9.19021 18.2174 8.84924 18.5584C8.50826 18.8993 8.0458 19.0909 7.56359 19.0909C7.08138 19.0909 6.61891 18.8993 6.27794 18.5584C5.93696 18.2174 5.74541 17.7549 5.74541 17.2727M9.38177 17.2727C9.38177 16.7905 9.19021 16.3281 8.84924 15.9871C8.50826 15.6461 8.0458 15.4545 7.56359 15.4545C7.08138 15.4545 6.61891 15.6461 6.27794 15.9871C5.93696 16.3281 5.74541 16.7905 5.74541 17.2727M5.74541 17.2727H1.19995M16.6545 10H21.2M16.6545 10C16.6545 10.4822 16.4629 10.9447 16.122 11.2856C15.781 11.6266 15.3185 11.8182 14.8363 11.8182C14.3541 11.8182 13.8916 11.6266 13.5507 11.2856C13.2097 10.9447 13.0181 10.4822 13.0181 10M16.6545 10C16.6545 9.51779 16.4629 9.05532 16.122 8.71435C15.781 8.37337 15.3185 8.18182 14.8363 8.18182C14.3541 8.18182 13.8916 8.37337 13.5507 8.71435C13.2097 9.05532 13.0181 9.51779 13.0181 10M13.0181 10H1.19995" stroke="#2E2D2D" stroke-width="1.5" stroke-linecap="round" stroke-linejoin="round"/>
</svg>
